#!OML:ASF H:\Terrain\Patient Classification 1\Animal2\Wednesday\Animal2.ASF
:FULLY-SPECIFIED
:DEGREES
1946
root 16.4983 17.2109 -3.61234 6.54553 -38.7167 3.0426
lowerback 10.3557 -4.59328 1.06315
upperback 5.04498 -6.02984 4.6223
thorax -0.117261 -3.10738 4.81455
lowerneck -3.04478 -3.00835 10.8143
upperneck 24.1793 -4.51267 -6.08055
head 7.52707 -1.89213 -4.1851
rclavicle 9.10434e-014 -5.88403e-014
rhumerus -35.035 -22.9221 -58.479
rradius 27.282
rwrist -4.12286
rhand -26.1905 2.34996
rfingers 7.12502
rthumb 0.36171 -27.6295
lclavicle 9.10434e-014 -5.88403e-014
lhumerus -20.0039 -25.3549 95.0687
lradius 111.362
lwrist -15.2768
lhand 10.7764 21.9919
lfingers 7.12502
lthumb 35.8623 48.3421
rfemur -37.796 18.0322 -0.0399613
rtibia 37.6864
rfoot -8.91368 -14.1391
rtoes -18.6653
lfemur -7.36465 15.2738 -14.1641
ltibia 30.2209
lfoot -23.2989 14.8947
ltoes -28.506
1947
root 16.4212 17.2208 -3.62029 6.89956 -38.9496 2.97112
lowerback 10.1766 -4.6593 1.13601
upperback 4.98885 -6.11559 4.73486
thorax -0.0664061 -3.15105 4.88557
lowerneck -2.99877 -2.93699 10.7512
upperneck 24.0996 -4.39408 -6.12348
head 7.50219 -1.84738 -4.17819
rclavicle -2.42517e-014 3.18055e-014
rhumerus -35.382 -23.0859 -57.8322
rradius 26.7255
rwrist -3.51287
rhand -25.6523 2.29396
rfingers 7.12502
rthumb 0.881587 -27.684
lclavicle -2.42517e-014 3.18055e-014
lhumerus -19.8214 -24.6978 95.2998
lradius 111.418
lwrist -15.8107
lhand 9.74094 22.0836
lfingers 7.12502
lthumb 34.8806 48.6674
rfemur -38.2527 18.0697 0.206589
rtibia 38.0038
rfoot -9.29958 -13.9979
rtoes -16.9944
lfemur -7.14687 15.0727 -13.9773
ltibia 29.5196
lfoot -23.1668 15.1602
ltoes -27.8874
1948
root 16.3386 17.2269 -3.62938 7.00375 -39.1136 3.15533
lowerback 9.95858 -4.83744 1.02408
upperback 5.06299 -6.37565 4.68747
thorax 0.156304 -3.28585 4.89517
lowerneck -3.11118 -2.7462 11.0082
upperneck 24.0928 -4.12121 -6.37444
head 7.53111 -1.7198 -4.29336
rclavicle 7.4743e-014 -2.14687e-014
rhumerus -35.4994 -23.3826 -57.6276
rradius 26.2675
rwrist -2.71929
rhand -25.2683 2.39639
rfingers 7.12502
rthumb 1.25246 -27.5797
lclavicle 7.4743e-014 -2.14687e-014
lhumerus -19.5208 -24.2599 94.9756
lradius 111.528
lwrist -15.8696
lhand 8.0666 22.4257
lfingers 7.12502
lthumb 33.2903 49.3642
rfemur -38.5694 17.9462 0.332351
rtibia 38.339
rfoot -9.91813 -13.7177
rtoes -15.4648
lfemur -6.80288 14.7875 -13.9783
ltibia 28.794
lfoot -22.7774 15.7378
ltoes -28.247
1949
root 16.2522 17.232 -3.63899 6.95349 -39.3942 3.3614
lowerback 9.85404 -4.88541 0.915086
upperback 5.14565 -6.45799 4.58129
thorax 0.3049 -3.32984 4.83613
lowerneck -3.43776 -2.63052 11.1109
upperneck 24.4664 -4.01633 -6.40749
head 7.72219 -1.65916 -4.33954
rclavicle -9.93923e-015 -3.10104e-014
rhumerus -35.8721 -23.2868 -57.5886
rradius 26.1149
rwrist -2.56645
rhand -24.7307 2.60751
rfingers 7.12502
rthumb 1.77162 -27.3649
lclavicle -9.93923e-015 -3.10104e-014
lhumerus -19.2648 -24.4441 94.4414
lradius 111.676
lwrist -15.5779
lhand 6.37064 22.8371
lfingers 7.12502
lthumb 31.6764 50.1074
rfemur -38.7906 17.8335 0.525835
rtibia 38.6885
rfoot -10.3407 -13.343
rtoes -15.5423
lfemur -6.2478 14.6158 -13.9477
ltibia 27.9995
lfoot -22.4271 16.0395
ltoes -27.9886
1950
root 16.1677 17.2385 -3.6452 6.95821 -39.6202 3.56653
lowerback 9.85527 -4.94152 0.79129
upperback 5.04433 -6.53668 4.58612
thorax 0.218925 -3.36941 4.92218
lowerneck -3.47303 -2.51693 10.9813
upperneck 24.7409 -3.87454 -6.35574
head 7.83852 -1.5952 -4.30423
rclavicle -1.02175e-013 4.69132e-014
rhumerus -36.4508 -22.5872 -57.4057
rradius 26.2151
rwrist -2.75133
rhand -23.9511 2.71932
rfingers 7.12502
rthumb 2.52461 -27.2455
lclavicle -1.02175e-013 4.69132e-014
lhumerus -19.3174 -24.3947 94.3245
lradius 111.761
lwrist -15.6684
lhand 5.41511 22.7175
lfingers 7.12502
lthumb 30.7658 50.1633
rfemur -39.0425 17.6666 0.688383
rtibia 39.0211
rfoot -10.7088 -13.0112
rtoes -15.7164
lfemur -5.76979 14.336 -13.9559
ltibia 27.1806
lfoot -21.9793 16.6256
ltoes -28.8516
1951
root 16.08 17.2466 -3.65078 7.11566 -39.7337 3.76738
lowerback 9.65739 -5.12119 0.622369
upperback 4.91197 -6.78897 4.65183
thorax 0.236966 -3.49852 5.09188
lowerneck -3.1813 -2.31811 10.9407
upperneck 24.6132 -3.54316 -6.46946
head 7.77065 -1.45568 -4.30444
rclavicle -1.33981e-013 6.59965e-014
rhumerus -36.8306 -22.2367 -57.2042
rradius 26.2586
rwrist -2.28114
rhand -23.4467 2.70321
rfingers 7.12502
rthumb 3.01171 -27.2553
lclavicle -1.33981e-013 6.59965e-014
lhumerus -19.5127 -23.8487 94.2672
lradius 111.96
lwrist -15.9542
lhand 4.76671 22.6178
lfingers 7.12502
lthumb 30.1474 50.1783
rfemur -39.3784 17.4105 0.837959
rtibia 39.333
rfoot -11.1715 -12.7198
rtoes -15.0529
lfemur -5.48502 13.9174 -13.9785
ltibia 26.3926
lfoot -21.4518 17.3792
ltoes -29.9829
